<?xml version="1.0" encoding="UTF-8" standalone="no"?>
<!-- Created with Inkscape (http://www.inkscape.org/) -->

<svg
   xmlns:dc="http://purl.org/dc/elements/1.1/"
   xmlns:cc="http://creativecommons.org/ns#"
   xmlns:rdf="http://www.w3.org/1999/02/22-rdf-syntax-ns#"
   xmlns:svg="http://www.w3.org/2000/svg"
   xmlns="http://www.w3.org/2000/svg"
   xmlns:xlink="http://www.w3.org/1999/xlink"
   xmlns:sodipodi="http://sodipodi.sourceforge.net/DTD/sodipodi-0.dtd"
   xmlns:inkscape="http://www.inkscape.org/namespaces/inkscape"
   width="327"
   height="337"
   id="svg2"
   version="1.1">
  <g
     inkscape:label="Layer 1"
     inkscape:groupmode="layer"
     id="layer1"
     transform="translate(74.740946,-656.80421)">
    <path
       style="fill:#f99c1c"
       d="m 39.774751,870.13985 c 0,0 31.20782,-46.62101 34.018726,-51.22555 3.446715,-5.63521 3.587275,-14.59667 0.501954,-19.40868 C 72.722658,796.98917 26.18867,723.3968 26.18867,723.3968 c -4.182912,-7.95085 -3.145545,-13.37191 -0.354705,-17.25365 4.591158,-6.77296 12.682566,-18.77287 12.682566,-18.77287 0,0 56.485957,88.61737 58.835082,92.57941 6.070227,10.1126 4.390367,20.01103 -0.609038,28.49731 -4.189594,7.14774 -40.791694,61.69953 -40.791694,61.69953"
       id="path85" />
    <path
       style="fill:#f99c1c"
       d="m 29.722381,875.17271 c 0,0 36.120229,-52.87192 38.803986,-57.25562 3.152235,-5.35411 2.804223,-12.89003 0,-17.43435 -1.505833,-2.40266 -51.653866,-81.33577 -51.653866,-81.33577 0,0 -8.9012333,13.41877 -11.7054489,17.5682 -2.8042229,4.12268 -4.47068504,9.26933 0.3413293,17.54145 0,0 35.9194556,56.68673 37.4319796,59.08939 2.924696,4.62462 2.797533,13.1176 -0.468478,18.47171 -2.683757,4.32345 -39.720865,58.32645 -39.720865,58.32645 H 109.63262 c 10.85548,0 16.81194,-4.22306 22.06567,-11.77238 4.54431,-6.41824 22.12589,-31.96408 24.82304,-35.97297 2.65697,-4.0156 8.01779,-6.68597 10.41376,-6.68597 h 8.35243 l -16.29661,-24.79627 h -26.00094 c -4.96595,0 -10.96925,4.41045 -14.1215,9.08192 -2.46959,3.68766 -20.258642,30.3311 -23.451042,34.61439 -1.820398,2.41606 -3.37978,2.94478 -4.82539,2.95816 -0.796424,0 -3.098708,-0.0141 -3.379788,-0.0141 1.05744,-2.12827 30.92003,-45.58365 36.79617,-55.14744 7.10092,-11.77907 8.70715,-27.33277 0.26102,-42.2574 -3.0853,-5.41434 -65.146234,-103.34788 -65.146234,-103.34788 0,0 -8.272116,11.89283 -11.712146,16.99934 -2.79084,4.15612 -3.647503,9.59724 0.374788,17.5548 0,0 52.095593,82.86839 54.578562,86.66313 6.05015,9.45002 5.30056,22.07904 0,30.67909 -4.323449,7.09421 -40.323223,61.44522 -40.323223,61.44522 h 28.524082 c 10.333451,0 12.869961,-3.83488 15.721031,-7.00719 2.85105,-3.19909 18.36463,-26.71706 20.11809,-29.19335 1.79363,-2.4562 6.31787,-9.40317 12.26764,-9.40317 h 18.73273 v 0.5421 c -3.98883,0.80312 -7.9241,3.21917 -10.77517,7.12768 -2.85107,3.86166 -21.6708,31.74323 -23.93961,34.98917 -2.85776,4.0959 -6.1104,7.97764 -14.3022,7.97764"
       id="path87" />
    <path
       style="fill:#021f5e"
       d="m -63.143806,927.36677 h 9.756712 c 2.228667,0 3.741334,1.28577 3.741334,3.77664 0,2.48582 -1.512667,3.77662 -3.741334,3.77662 h -20.975674 v 6.51457 h 20.239514 c 7.860828,0 11.718137,-5.17838 11.718137,-10.43742 0,-5.26409 -3.862348,-10.40212 -11.718137,-10.40212 -3.378288,0 -9.802097,0.0202 -9.802097,0.0202 -2.183282,0 -3.645531,-1.26057 -3.645531,-3.67075 0,-2.42531 1.462249,-3.68083 3.645531,-3.68083 h 21.016008 v -6.51457 h -20.229424 c -7.77007,0 -11.602174,4.58844 -11.602174,10.32651 -0.005,5.75318 3.827065,10.29117 11.597135,10.29117"
       id="path89" />
    <path
       style="fill:#021f5e"
       d="m 41.053867,941.42956 h 15.484692 v -22.62954 h -7.613761 v 15.93346 h -8.919711 c -6.433886,0 -10.750023,-3.71109 -10.750023,-10.82568 0,-7.1398 4.3111,-10.82063 10.750023,-10.82063 h 16.528431 v -6.33808 H 41.048829 c -13.059363,0 -19.493253,9.36343 -19.493253,17.38057 0,8.00202 6.438927,17.2999 19.498291,17.2999"
       id="path91" />
    <rect
       style="fill:#021f5e"
       x="-34.619881"
       y="906.74896"
       width="7.6087246"
       height="34.680458"
       id="rect93" />
    <path
       style="fill:#021f5e"
       d="M -9.9835835,913.08213 H 2.6270358 c 3.0908908,0 5.0724896,2.81861 5.0724896,5.43552 v 22.90686 h 7.5935936 v -23.86487 c 0,-5.90949 -4.20522,-10.81559 -10.9416368,-10.81559 h -9.9836138 l -4.3463965,5.77839 v -5.77839 H -17.58221 v 34.68046 h 7.6036819"
       id="path97" />
    <path
       style="fill:#021f5e"
       d="m 192.2048,913.08717 h 11.95009 c 2.79843,0 4.56321,2.69255 4.56321,5.11283 0,2.42027 -1.76981,5.03215 -4.56321,5.03215 h -9.35334 l 15.1519,18.19236 h 9.02055 l -10.745,-12.92827 h 0.0202 c 4.61869,-1.49251 7.58857,-5.73807 7.58857,-10.5181 0,-5.97505 -4.61869,-11.23409 -11.35007,-11.23409 h -19.77562 v 34.68046 h 7.49274"
       id="path99" />
    <polyline
       style="fill:#021f5e"
       points="426.963,681.603 426.963,680.344 422.935,680.347 422.935,678.584 426.443,678.584   426.443,677.333 422.935,677.333 422.935,675.981 426.963,675.982 426.963,674.725 421.417,674.725 421.417,681.603   422.935,681.603 "
       id="polyline101"
       transform="matrix(5.0422299,0,0,5.0422299,-1900.5879,-2495.3695)" />
    <path
       style="fill:#021f5e"
       d="m 81.467348,912.72917 5.506119,12.52996 -10.971897,0.0202 5.465778,-12.55012 m -8.062527,18.63104 16.165392,0.0106 4.50271,10.05421 h 8.304557 L 85.400279,906.74463 h -7.860824 l -16.977202,34.68046 h 8.365062"
       id="path105" />
    <path
       style="fill:#021f5e"
       d="m 113.89897,913.08213 h 11.80387 c 2.79338,0 4.57329,2.91442 4.57329,5.53637 0,2.60683 -1.78495,5.43554 -4.57329,5.43554 h -11.80387 v -10.97191 m 0,11.51647 v -0.0152 l 4.3464,5.76832 h 7.78017 c 6.53977,0 11.1534,-5.44561 11.1534,-11.72823 0,-6.31287 -4.61363,-11.86941 -11.1534,-11.86941 h -19.7706 v 34.68046 h 7.64403"
       id="path107" />
    <path
       style="fill:#021f5e"
       d="m 160.16647,912.16949 c 6.5196,0 11.83916,5.31451 11.83916,11.87949 0,6.50952 -5.31956,11.81395 -11.83916,11.81395 -6.5549,0 -11.86941,-5.30443 -11.86941,-11.81395 0,-6.56498 5.31451,-11.87949 11.86941,-11.87949 m 0,30.71223 c 10.39708,0 18.83777,-8.45078 18.83777,-18.82768 0,-10.43239 -8.44574,-18.87812 -18.83777,-18.87812 -10.4122,0 -18.81256,8.44573 -18.81256,18.87812 -0.005,10.3769 8.39531,18.82768 18.81256,18.82768 z"
       id="path109" />
    <rect
       style="fill:#021f5e"
       x="93.562599"
       y="959.13171"
       width="7.647337"
       height="34.657509"
       id="rect95" />
    <polyline
       style="fill:#021f5e"
       points="457.402,681.603 457.402,680.344 453.884,680.347 453.884,674.725 452.366,674.725   452.366,681.603 453.884,681.603 "
       id="polyline103"
       transform="matrix(5.0410923,0,0,5.0410923,-2217.5817,-2442.2245)" />
    <path
       style="fill:#021f5e"
       d="m -20.840019,965.10526 5.499834,12.52713 -10.969418,0.0202 5.469584,-12.54729 m -8.06071,18.62684 16.151658,0.0106 4.4966599,10.05193 H 0.05530449 L -16.918054,959.12209 h -7.859061 l -16.978396,34.67262 h 8.373248"
       id="path111" />
    <path
       style="fill:#021f5e"
       d="M 30.866471,965.46317 H 42.82394 c 2.792755,0 4.572268,2.69195 4.572268,5.11168 0,2.41972 -1.78455,5.03101 -4.572268,5.03101 h -9.351236 l 15.153524,18.18826 H 57.64475 L 46.892098,980.86877 h 0.02017 c 4.617647,-1.49217 7.586842,-5.73678 7.586842,-10.51572 0,-5.97371 -4.607557,-11.23156 -11.337419,-11.23156 H 23.385494 v 34.67263 h 7.48098"
       id="path113" />
    <rect
       style="fill:#021f5e"
       x="5.1720443"
       y="959.1264"
       width="7.6120496"
       height="34.67263"
       id="rect115" />
    <path
       style="fill:#021f5e"
       d="m 198.61385,979.73955 h 9.7394 c 2.24328,0 3.75056,1.28548 3.75056,3.77579 0,2.48526 -1.50728,3.77577 -3.75056,3.77577 h -20.96591 v 6.51309 h 20.23998 c 7.85403,0 11.7155,-5.17721 11.7155,-10.43506 0,-5.2629 -3.86652,-10.39977 -11.7155,-10.39977 -3.37248,0 -9.80492,0.0202 -9.80492,0.0202 -2.17776,0 -3.63967,-1.26028 -3.63967,-3.66992 0,-2.42476 1.46191,-3.68 3.63967,-3.68 h 21.00624 v -6.51309 h -20.21479 c -7.77841,0 -11.60963,4.5874 -11.60963,10.32417 0.005,5.75188 3.83122,10.28886 11.60963,10.28886"
       id="path117" />
    <polyline
       style="fill:#021f5e"
       points="475.545,681.603 475.545,680.344 471.516,680.347 471.516,678.584 475.027,678.584   475.027,677.333 471.516,677.333 471.516,675.981 475.545,675.982 475.545,674.725 470,674.725 470,681.603 471.516,681.603 "
       id="polyline119"
       transform="matrix(5.0410923,0,0,5.0410923,-2217.5817,-2442.2245)" />
    <path
       style="fill:#021f5e"
       d="m 118.13785,965.45814 h 12.61786 c 3.08514,0 5.05621,2.81797 5.05621,5.43429 v 22.90169 h 7.60198 v -23.85949 c 0,-5.90816 -4.20429,-10.81314 -10.94422,-10.81314 h -9.98136 l -4.34542,5.77708 v -5.77708 h -7.60197 v 34.67263 h 7.60197"
       id="path121" />
  </g>
</svg>
